name C:\Users\u0101727\Documents\MyRepositories\upper-imu-dc\Results\main_mocap_tracking\Case_7\kinematics.mot
datacolumns 15
datarows 12
range 1.00000000 1.11000000
endheader 
time	ground_thorax_rot_x	ground_thorax_rot_y	ground_thorax_rot_z	clav_prot	clav_elev	scapula_abduction	scapula_elevation	scapula_upward_rot	scapula_winging	plane_elv	shoulder_elv	axial_rot	elbow_flexion	pro_sup	
          1.00000000	          9.19235522	         19.99999565	          9.95112679	        -21.68183148	         -9.66932401	        -19.28741626	         -2.09548800	         -7.62073413	         11.78683367	         34.10620295	         16.15764982	         29.59046447	         -8.15113770	         46.55781454	
          1.01000000	          9.01350008	         19.93017420	          9.99598340	        -21.33185675	        -10.19220898	        -18.68306943	         -2.44056847	         -7.83559674	         11.98338329	         34.74522178	         16.64972327	         28.27727402	         -7.67924917	         45.99082154	
          1.02000000	          8.83049971	         19.86776287	          9.99576087	        -20.98499767	        -10.72777877	        -18.08120508	         -2.78577558	         -8.05299666	         12.18585200	         35.44958105	         17.17473191	         26.94109199	         -7.19216919	         45.39705637	
          1.03000000	          8.64246936	         19.81174366	          9.96506410	        -20.62421101	        -11.26122522	        -17.46112361	         -3.12792746	         -8.27452790	         12.38978839	         36.22025564	         17.72791634	         25.56526349	         -6.71393148	         44.78651866	
          1.04000000	          8.44871530	         19.76149721	          9.91493691	        -20.24360460	        -11.78564781	        -16.81169845	         -3.46254546	         -8.49534938	         12.59015639	         37.04409475	         18.29846782	         24.16373143	         -6.24839616	         44.18216830	
          1.05000000	          8.24896164	         19.71669662	          9.85360393	        -19.84244863	        -12.29555326	        -16.13051860	         -3.78643880	         -8.71105031	         12.78266569	         37.91227545	         18.87726426	         22.75562559	         -5.79596907	         43.60274721	
          1.06000000	          8.04326568	         19.67698665	          9.78710418	        -19.42260543	        -12.78691340	        -15.41913812	         -4.09800026	         -8.91642301	         12.96365221	         38.81870196	         19.45605001	         21.35892867	         -5.35536006	         43.06250753	
          1.07000000	          7.83192689	         19.64196127	          9.71980973	        -18.98827892	        -13.25758502	        -14.68329194	         -4.39694664	         -9.10734791	         13.13084259	         39.75940927	         20.02855954	         19.98972325	         -4.92553842	         42.57142161	
          1.08000000	          7.61547079	         19.61118313	          9.65480482	        -18.54476731	        -13.70685560	        -13.93079917	         -4.68393380	         -9.28064373	         13.28318323	         40.73044708	         20.59070244	         18.66006362	         -4.50537077	         42.13448545	
          1.09000000	          7.39457562	         19.58422636	          9.59420324	        -18.09824183	        -14.13539945	        -13.17119797	         -4.96054788	         -9.43399058	         13.42093224	         41.72625655	         21.14010899	         17.37738659	         -4.09327603	         41.75168206	
          1.10000000	          7.17004828	         19.56074377	          9.53936524	        -17.65482612	        -14.54498114	        -12.41427697	         -5.22893189	         -9.56618312	         13.54548149	         42.73987859	         21.67598582	         16.14619798	         -3.68799980	         41.42036935	
          1.11000000	          6.94277111	         19.54046521	          9.49109601	        -17.21999320	        -14.93771922	        -11.66903632	         -5.49119362	         -9.67697249	         13.65884928	         43.76424698	         22.19867328	         14.96820750	         -3.28881985	         41.13611245	
